Coordinates
version=1
nRows=12
nColumns=24
inDegrees=yes

Units are S.I. units (second, meters, Newtons, ...)
Angles are in degrees.

endheader
time	pelvis_tilt	pelvis_list	pelvis_rotation	pelvis_tx	pelvis_ty	pelvis_tz	hip_flexion_r	hip_adduction_r	hip_rotation_r	knee_angle_r	ankle_angle_r	subtalar_angle_r	mtp_angle_r	hip_flexion_l	hip_adduction_l	hip_rotation_l	knee_angle_l	ankle_angle_l	subtalar_angle_l	mtp_angle_l	lumbar_extension	lumbar_bending	lumbar_rotation
      6.04000000	      4.91121450	      5.53744365	      3.76702718	     -0.62773888	      0.87590524	      0.24972571	     20.64379757	     -3.76160742	     -5.71888717	     -3.77505293	      7.67947693	      0.27156752	      0.00000000	    -22.78078146	      8.82458155	     12.73378211	     -9.00168579	     19.30100153	     -0.15884723	      0.00000000	    -24.40914473	     -3.57431968	    -13.09412750
      6.05000000	      5.04346459	      5.34181968	      4.12548539	     -0.61374124	      0.87492995	      0.24969131	     20.69963759	     -3.61060140	     -6.60849884	     -5.45739763	      7.45919210	      0.06228075	      0.00000000	    -22.96732593	      8.43112666	     11.81134695	    -10.67849252	     19.46373702	      1.39901271	      0.00000000	    -24.34601341	     -3.08737400	    -13.18273062
      6.06000000	      5.14672612	      5.11240615	      4.62812946	     -0.59952096	      0.87409235	      0.24948129	     20.58889709	     -3.46589896	     -7.19764588	     -6.96971864	      6.75767612	     -0.56623007	      0.00000000	    -22.99551464	      7.95335294	     10.98322557	    -12.58943559	     19.39543338	      2.79770235	      0.00000000	    -24.21229108	     -2.51636066	    -13.35222050
      6.07000000	      5.25143099	      4.82286232	      5.24769245	     -0.58518913	      0.87349807	      0.24912031	     20.34606917	     -3.28335903	     -7.54835023	     -8.36221710	      5.69980183	     -1.49194928	      0.00000000	    -22.86754584	      7.37414833	     10.25631695	    -14.74926783	     19.02823064	      3.97217675	      0.00000000	    -24.04981593	     -1.83696032	    -13.56701801
      6.08000000	      5.34419882	      4.46262765	      5.90712007	     -0.57086717	      0.87315185	      0.24869500	     20.09741054	     -3.03049635	     -7.69101205	     -9.77296126	      4.50377526	     -2.57394764	      0.00000000	    -22.53508229	      6.72056111	      9.59866242	    -17.17661719	     18.28241880	      4.87471515	      0.00000000	    -23.85141986	     -1.07255865	    -13.73772697
      6.09000000	      5.44054933	      4.03889134	      6.53037345	     -0.55665990	      0.87307494	      0.24826522	     19.93500375	     -2.70419607	     -7.72123551	    -11.35967705	      3.51844085	     -3.56490063	      0.00000000	    -22.00676917	      6.04151043	      9.02445101	    -19.84922116	     17.03448391	      5.38143925	      0.00000000	    -23.65683778	     -0.24498880	    -13.80415240
      6.10000000	      5.57327272	      3.57453007	      7.02620248	     -0.54264351	      0.87325768	      0.24792171	     19.89794196	     -2.30890213	     -7.70672972	    -13.23058874	      3.04419775	     -4.24243756	      0.00000000	    -21.30585221	      5.39120576	      8.42998827	    -22.75545320	     15.20975016	      5.50679089	      0.00000000	    -23.51996986	      0.59515244	    -13.68953294
      6.11000000	      5.77766259	      3.08674391	      7.33952413	     -0.52886186	      0.87366270	      0.24775708	     19.94254602	     -1.83372441	     -7.62968651	    -15.36108852	      3.18281581	     -4.63513861	      0.00000000	    -20.45650784	      4.78384805	      7.69009830	    -25.90250572	     12.83929647	      5.35830932	      0.00000000	    -23.50517692	      1.41135737	    -13.37755012
      6.12000000	      5.87485205	      2.65646182	      7.49390338	     -0.51534737	      0.87399537	      0.24776129	     20.20497184	     -1.37586363	     -7.43807885	    -17.66333125	      3.97236364	     -4.81412620	      0.00000000	    -19.26358002	      4.30753859	      6.84575900	    -29.30878668	      9.96145642	      5.09079757	      0.00000000	    -23.40846541	      2.08466250	    -12.93985127
      6.13000000	      6.01325453	      2.24438658	      7.48588730	     -0.50210533	      0.87439349	      0.24794355	     20.42984706	     -0.87955934	     -7.26357497	    -19.94448138	      5.24746383	     -4.69782987	      0.00000000	    -17.93027142	      3.88877847	      5.89597041	    -32.87176369	      6.67188127	      4.50364083	      0.00000000	    -23.41538274	      2.68262079	    -12.34975133
      6.14000000	      6.19610436	      1.81229873	      7.37618254	     -0.48914328	      0.87485742	      0.24830833	     20.48763015	     -0.29010280	     -7.04150871	    -21.96321578	      6.72648890	     -4.57213025	      0.00000000	    -16.46707769	      3.43617997	      4.85070229	    -36.57135368	      3.26534844	      3.76898006	      0.00000000	    -23.53052978	      3.25221437	    -11.64768955
      6.15000000	      6.38201772	      1.35434619	      7.26542629	     -0.47650694	      0.87536805	      0.24876482	     20.34968685	      0.36452344	     -6.84484441	    -23.59066922	      8.21476401	     -4.48425208	      0.00000000	    -14.83977931	      2.90708479	      3.81517616	    -40.38688616	      0.04492637	      2.90590094	      0.00000000	    -23.70030132	      3.81726293	    -10.94982922
